<mxfile host="app.diagrams.net" agent="Claude Code" version="24.0.0">
  <diagram name="Database Schema" id="database-schema">
    <mxGraphModel dx="1422" dy="1400" grid="1" gridSize="10" guides="1" tooltips="1" connect="1" arrows="1" fold="1" page="1" pageScale="1" pageWidth="1400" pageHeight="1200">
      <root>
        <mxCell id="0"/>
        <mxCell id="1" parent="0"/>

        <!-- Title -->
        <mxCell id="title" value="データベーススキーマ図 (PostgreSQL)" style="text;html=1;strokeColor=none;fillColor=none;align=center;verticalAlign=middle;whiteSpace=wrap;rounded=0;fontSize=20;fontStyle=1" vertex="1" parent="1">
          <mxGeometry x="450" y="20" width="500" height="40" as="geometry"/>
        </mxCell>

        <!-- device_measurements -->
        <mxCell id="table1" value="&lt;b&gt;device_measurements&lt;/b&gt;" style="swimlane;fontStyle=1;childLayout=stackLayout;horizontal=1;startSize=30;horizontalStack=0;resizeParent=1;resizeParentMax=0;resizeLast=0;collapsible=1;marginBottom=0;whiteSpace=wrap;html=1;fillColor=#ffe6cc;strokeColor=#d79b00;" vertex="1" parent="1">
          <mxGeometry x="80" y="100" width="260" height="210" as="geometry"/>
        </mxCell>
        <mxCell id="table1-col1" value="🔑 id (SERIAL PRIMARY KEY)" style="text;strokeColor=none;fillColor=none;align=left;verticalAlign=middle;spacingLeft=4;spacingRight=4;overflow=hidden;points=[[0,0.5],[1,0.5]];portConstraint=eastwest;rotatable=0;whiteSpace=wrap;html=1;fontStyle=1" vertex="1" parent="table1">
          <mxGeometry y="30" width="260" height="26" as="geometry"/>
        </mxCell>
        <mxCell id="table1-col2" value="device_id (TEXT NOT NULL)" style="text;strokeColor=none;fillColor=none;align=left;verticalAlign=middle;spacingLeft=4;spacingRight=4;overflow=hidden;points=[[0,0.5],[1,0.5]];portConstraint=eastwest;rotatable=0;whiteSpace=wrap;html=1;" vertex="1" parent="table1">
          <mxGeometry y="56" width="260" height="26" as="geometry"/>
        </mxCell>
        <mxCell id="table1-col3" value="temperature (NUMERIC)" style="text;strokeColor=none;fillColor=none;align=left;verticalAlign=middle;spacingLeft=4;spacingRight=4;overflow=hidden;points=[[0,0.5],[1,0.5]];portConstraint=eastwest;rotatable=0;whiteSpace=wrap;html=1;" vertex="1" parent="table1">
          <mxGeometry y="82" width="260" height="26" as="geometry"/>
        </mxCell>
        <mxCell id="table1-col4" value="humidity (NUMERIC)" style="text;strokeColor=none;fillColor=none;align=left;verticalAlign=middle;spacingLeft=4;spacingRight=4;overflow=hidden;points=[[0,0.5],[1,0.5]];portConstraint=eastwest;rotatable=0;whiteSpace=wrap;html=1;" vertex="1" parent="table1">
          <mxGeometry y="108" width="260" height="26" as="geometry"/>
        </mxCell>
        <mxCell id="table1-col5" value="recorded_at (TIMESTAMPTZ)" style="text;strokeColor=none;fillColor=none;align=left;verticalAlign=middle;spacingLeft=4;spacingRight=4;overflow=hidden;points=[[0,0.5],[1,0.5]];portConstraint=eastwest;rotatable=0;whiteSpace=wrap;html=1;" vertex="1" parent="table1">
          <mxGeometry y="134" width="260" height="26" as="geometry"/>
        </mxCell>
        <mxCell id="table1-col6" value="payload (JSONB)" style="text;strokeColor=none;fillColor=none;align=left;verticalAlign=middle;spacingLeft=4;spacingRight=4;overflow=hidden;points=[[0,0.5],[1,0.5]];portConstraint=eastwest;rotatable=0;whiteSpace=wrap;html=1;" vertex="1" parent="table1">
          <mxGeometry y="160" width="260" height="26" as="geometry"/>
        </mxCell>
        <mxCell id="table1-col7" value="created_at (TIMESTAMPTZ)" style="text;strokeColor=none;fillColor=none;align=left;verticalAlign=middle;spacingLeft=4;spacingRight=4;overflow=hidden;points=[[0,0.5],[1,0.5]];portConstraint=eastwest;rotatable=0;whiteSpace=wrap;html=1;" vertex="1" parent="table1">
          <mxGeometry y="186" width="260" height="24" as="geometry"/>
        </mxCell>
        <mxCell id="table1-note" value="ESP32からの生データ" style="text;html=1;strokeColor=none;fillColor=none;align=center;verticalAlign=middle;whiteSpace=wrap;rounded=0;fontSize=11;fontStyle=2" vertex="1" parent="1">
          <mxGeometry x="130" y="320" width="160" height="20" as="geometry"/>
        </mxCell>

        <!-- processed_measurements -->
        <mxCell id="table2" value="&lt;b&gt;processed_measurements&lt;/b&gt;" style="swimlane;fontStyle=1;childLayout=stackLayout;horizontal=1;startSize=30;horizontalStack=0;resizeParent=1;resizeParentMax=0;resizeLast=0;collapsible=1;marginBottom=0;whiteSpace=wrap;html=1;fillColor=#d5e8d4;strokeColor=#82b366;" vertex="1" parent="1">
          <mxGeometry x="400" y="100" width="280" height="284" as="geometry"/>
        </mxCell>
        <mxCell id="table2-col1" value="🔑 id (SERIAL PRIMARY KEY)" style="text;strokeColor=none;fillColor=none;align=left;verticalAlign=middle;spacingLeft=4;spacingRight=4;overflow=hidden;points=[[0,0.5],[1,0.5]];portConstraint=eastwest;rotatable=0;whiteSpace=wrap;html=1;fontStyle=1" vertex="1" parent="table2">
          <mxGeometry y="30" width="280" height="26" as="geometry"/>
        </mxCell>
        <mxCell id="table2-col2" value="node_id (TEXT NOT NULL)" style="text;strokeColor=none;fillColor=none;align=left;verticalAlign=middle;spacingLeft=4;spacingRight=4;overflow=hidden;points=[[0,0.5],[1,0.5]];portConstraint=eastwest;rotatable=0;whiteSpace=wrap;html=1;fontColor=#d79b00;fontStyle=1" vertex="1" parent="table2">
          <mxGeometry y="56" width="280" height="26" as="geometry"/>
        </mxCell>
        <mxCell id="table2-col3" value="observed_c (NUMERIC)" style="text;strokeColor=none;fillColor=none;align=left;verticalAlign=middle;spacingLeft=4;spacingRight=4;overflow=hidden;points=[[0,0.5],[1,0.5]];portConstraint=eastwest;rotatable=0;whiteSpace=wrap;html=1;" vertex="1" parent="table2">
          <mxGeometry y="82" width="280" height="26" as="geometry"/>
        </mxCell>
        <mxCell id="table2-col4" value="forecast_c (NUMERIC)" style="text;strokeColor=none;fillColor=none;align=left;verticalAlign=middle;spacingLeft=4;spacingRight=4;overflow=hidden;points=[[0,0.5],[1,0.5]];portConstraint=eastwest;rotatable=0;whiteSpace=wrap;html=1;" vertex="1" parent="table2">
          <mxGeometry y="108" width="280" height="26" as="geometry"/>
        </mxCell>
        <mxCell id="table2-col5" value="abs_error (NUMERIC)" style="text;strokeColor=none;fillColor=none;align=left;verticalAlign=middle;spacingLeft=4;spacingRight=4;overflow=hidden;points=[[0,0.5],[1,0.5]];portConstraint=eastwest;rotatable=0;whiteSpace=wrap;html=1;" vertex="1" parent="table2">
          <mxGeometry y="134" width="280" height="26" as="geometry"/>
        </mxCell>
        <mxCell id="table2-col6" value="battery_v (NUMERIC)" style="text;strokeColor=none;fillColor=none;align=left;verticalAlign=middle;spacingLeft=4;spacingRight=4;overflow=hidden;points=[[0,0.5],[1,0.5]];portConstraint=eastwest;rotatable=0;whiteSpace=wrap;html=1;" vertex="1" parent="table2">
          <mxGeometry y="160" width="280" height="26" as="geometry"/>
        </mxCell>
        <mxCell id="table2-col7" value="s_err (NUMERIC)" style="text;strokeColor=none;fillColor=none;align=left;verticalAlign=middle;spacingLeft=4;spacingRight=4;overflow=hidden;points=[[0,0.5],[1,0.5]];portConstraint=eastwest;rotatable=0;whiteSpace=wrap;html=1;" vertex="1" parent="table2">
          <mxGeometry y="186" width="280" height="26" as="geometry"/>
        </mxCell>
        <mxCell id="table2-col8" value="target_rate (TEXT)" style="text;strokeColor=none;fillColor=none;align=left;verticalAlign=middle;spacingLeft=4;spacingRight=4;overflow=hidden;points=[[0,0.5],[1,0.5]];portConstraint=eastwest;rotatable=0;whiteSpace=wrap;html=1;fontColor=#CC0000;fontStyle=1" vertex="1" parent="table2">
          <mxGeometry y="212" width="280" height="26" as="geometry"/>
        </mxCell>
        <mxCell id="table2-col9" value="recorded_at (TIMESTAMPTZ)" style="text;strokeColor=none;fillColor=none;align=left;verticalAlign=middle;spacingLeft=4;spacingRight=4;overflow=hidden;points=[[0,0.5],[1,0.5]];portConstraint=eastwest;rotatable=0;whiteSpace=wrap;html=1;" vertex="1" parent="table2">
          <mxGeometry y="238" width="280" height="22" as="geometry"/>
        </mxCell>
        <mxCell id="table2-col10" value="created_at (TIMESTAMPTZ)" style="text;strokeColor=none;fillColor=none;align=left;verticalAlign=middle;spacingLeft=4;spacingRight=4;overflow=hidden;points=[[0,0.5],[1,0.5]];portConstraint=eastwest;rotatable=0;whiteSpace=wrap;html=1;" vertex="1" parent="table2">
          <mxGeometry y="260" width="280" height="24" as="geometry"/>
        </mxCell>
        <mxCell id="table2-index" value="📊 INDEX: recorded_at DESC" style="text;html=1;strokeColor=none;fillColor=none;align=center;verticalAlign=middle;whiteSpace=wrap;rounded=0;fontSize=10;fontStyle=2" vertex="1" parent="1">
          <mxGeometry x="450" y="394" width="180" height="20" as="geometry"/>
        </mxCell>
        <mxCell id="table2-note" value="レート判定後の処理結果" style="text;html=1;strokeColor=none;fillColor=none;align=center;verticalAlign=middle;whiteSpace=wrap;rounded=0;fontSize=11;fontStyle=2" vertex="1" parent="1">
          <mxGeometry x="470" y="424" width="140" height="20" as="geometry"/>
        </mxCell>

        <!-- control_states -->
        <mxCell id="table3" value="&lt;b&gt;control_states&lt;/b&gt;" style="swimlane;fontStyle=1;childLayout=stackLayout;horizontal=1;startSize=30;horizontalStack=0;resizeParent=1;resizeParentMax=0;resizeLast=0;collapsible=1;marginBottom=0;whiteSpace=wrap;html=1;fillColor=#dae8fc;strokeColor=#6c8ebf;" vertex="1" parent="1">
          <mxGeometry x="760" y="100" width="280" height="360" as="geometry"/>
        </mxCell>
        <mxCell id="table3-col1" value="🔑 node_id (TEXT PRIMARY KEY)" style="text;strokeColor=none;fillColor=none;align=left;verticalAlign=middle;spacingLeft=4;spacingRight=4;overflow=hidden;points=[[0,0.5],[1,0.5]];portConstraint=eastwest;rotatable=0;whiteSpace=wrap;html=1;fontStyle=1;fontColor=#d79b00;" vertex="1" parent="table3">
          <mxGeometry y="30" width="280" height="26" as="geometry"/>
        </mxCell>
        <mxCell id="table3-col2" value="target_rate (TEXT)" style="text;strokeColor=none;fillColor=none;align=left;verticalAlign=middle;spacingLeft=4;spacingRight=4;overflow=hidden;points=[[0,0.5],[1,0.5]];portConstraint=eastwest;rotatable=0;whiteSpace=wrap;html=1;fontColor=#CC0000;fontStyle=1" vertex="1" parent="table3">
          <mxGeometry y="56" width="280" height="26" as="geometry"/>
        </mxCell>
        <mxCell id="table3-col3" value="previous_rate (TEXT)" style="text;strokeColor=none;fillColor=none;align=left;verticalAlign=middle;spacingLeft=4;spacingRight=4;overflow=hidden;points=[[0,0.5],[1,0.5]];portConstraint=eastwest;rotatable=0;whiteSpace=wrap;html=1;" vertex="1" parent="table3">
          <mxGeometry y="82" width="280" height="26" as="geometry"/>
        </mxCell>
        <mxCell id="table3-col4" value="m_ewma (NUMERIC)" style="text;strokeColor=none;fillColor=none;align=left;verticalAlign=middle;spacingLeft=4;spacingRight=4;overflow=hidden;points=[[0,0.5],[1,0.5]];portConstraint=eastwest;rotatable=0;whiteSpace=wrap;html=1;" vertex="1" parent="table3">
          <mxGeometry y="108" width="280" height="26" as="geometry"/>
        </mxCell>
        <mxCell id="table3-col5" value="sigma_day (NUMERIC)" style="text;strokeColor=none;fillColor=none;align=left;verticalAlign=middle;spacingLeft=4;spacingRight=4;overflow=hidden;points=[[0,0.5],[1,0.5]];portConstraint=eastwest;rotatable=0;whiteSpace=wrap;html=1;" vertex="1" parent="table3">
          <mxGeometry y="134" width="280" height="26" as="geometry"/>
        </mxCell>
        <mxCell id="table3-col6" value="samples (JSONB)" style="text;strokeColor=none;fillColor=none;align=left;verticalAlign=middle;spacingLeft=4;spacingRight=4;overflow=hidden;points=[[0,0.5],[1,0.5]];portConstraint=eastwest;rotatable=0;whiteSpace=wrap;html=1;fontStyle=1" vertex="1" parent="table3">
          <mxGeometry y="160" width="280" height="26" as="geometry"/>
        </mxCell>
        <mxCell id="table3-col7" value="s_err (NUMERIC)" style="text;strokeColor=none;fillColor=none;align=left;verticalAlign=middle;spacingLeft=4;spacingRight=4;overflow=hidden;points=[[0,0.5],[1,0.5]];portConstraint=eastwest;rotatable=0;whiteSpace=wrap;html=1;" vertex="1" parent="table3">
          <mxGeometry y="186" width="280" height="26" as="geometry"/>
        </mxCell>
        <mxCell id="table3-col8" value="last_observed_c (NUMERIC)" style="text;strokeColor=none;fillColor=none;align=left;verticalAlign=middle;spacingLeft=4;spacingRight=4;overflow=hidden;points=[[0,0.5],[1,0.5]];portConstraint=eastwest;rotatable=0;whiteSpace=wrap;html=1;" vertex="1" parent="table3">
          <mxGeometry y="212" width="280" height="26" as="geometry"/>
        </mxCell>
        <mxCell id="table3-col9" value="last_forecast_c (NUMERIC)" style="text;strokeColor=none;fillColor=none;align=left;verticalAlign=middle;spacingLeft=4;spacingRight=4;overflow=hidden;points=[[0,0.5],[1,0.5]];portConstraint=eastwest;rotatable=0;whiteSpace=wrap;html=1;" vertex="1" parent="table3">
          <mxGeometry y="238" width="280" height="26" as="geometry"/>
        </mxCell>
        <mxCell id="table3-col10" value="last_updated_at (TIMESTAMPTZ)" style="text;strokeColor=none;fillColor=none;align=left;verticalAlign=middle;spacingLeft=4;spacingRight=4;overflow=hidden;points=[[0,0.5],[1,0.5]];portConstraint=eastwest;rotatable=0;whiteSpace=wrap;html=1;" vertex="1" parent="table3">
          <mxGeometry y="264" width="280" height="26" as="geometry"/>
        </mxCell>
        <mxCell id="table3-col11" value="reason (TEXT)" style="text;strokeColor=none;fillColor=none;align=left;verticalAlign=middle;spacingLeft=4;spacingRight=4;overflow=hidden;points=[[0,0.5],[1,0.5]];portConstraint=eastwest;rotatable=0;whiteSpace=wrap;html=1;" vertex="1" parent="table3">
          <mxGeometry y="290" width="280" height="26" as="geometry"/>
        </mxCell>
        <mxCell id="table3-col12" value="mode (TEXT)" style="text;strokeColor=none;fillColor=none;align=left;verticalAlign=middle;spacingLeft=4;spacingRight=4;overflow=hidden;points=[[0,0.5],[1,0.5]];portConstraint=eastwest;rotatable=0;whiteSpace=wrap;html=1;" vertex="1" parent="table3">
          <mxGeometry y="316" width="280" height="22" as="geometry"/>
        </mxCell>
        <mxCell id="table3-col13" value="updated_at (TIMESTAMPTZ)" style="text;strokeColor=none;fillColor=none;align=left;verticalAlign=middle;spacingLeft=4;spacingRight=4;overflow=hidden;points=[[0,0.5],[1,0.5]];portConstraint=eastwest;rotatable=0;whiteSpace=wrap;html=1;" vertex="1" parent="table3">
          <mxGeometry y="338" width="280" height="22" as="geometry"/>
        </mxCell>
        <mxCell id="table3-note" value="デバイスごとの現在状態 (UPSERT)&lt;br&gt;samples配列: 最大48件保持" style="text;html=1;strokeColor=none;fillColor=none;align=center;verticalAlign=middle;whiteSpace=wrap;rounded=0;fontSize=11;fontStyle=2" vertex="1" parent="1">
          <mxGeometry x="790" y="470" width="220" height="40" as="geometry"/>
        </mxCell>

        <!-- score_logs -->
        <mxCell id="table4" value="&lt;b&gt;score_logs&lt;/b&gt;" style="swimlane;fontStyle=1;childLayout=stackLayout;horizontal=1;startSize=30;horizontalStack=0;resizeParent=1;resizeParentMax=0;resizeLast=0;collapsible=1;marginBottom=0;whiteSpace=wrap;html=1;fillColor=#f8cecc;strokeColor=#b85450;" vertex="1" parent="1">
          <mxGeometry x="1100" y="100" width="260" height="188" as="geometry"/>
        </mxCell>
        <mxCell id="table4-col1" value="🔑 id (SERIAL PRIMARY KEY)" style="text;strokeColor=none;fillColor=none;align=left;verticalAlign=middle;spacingLeft=4;spacingRight=4;overflow=hidden;points=[[0,0.5],[1,0.5]];portConstraint=eastwest;rotatable=0;whiteSpace=wrap;html=1;fontStyle=1" vertex="1" parent="table4">
          <mxGeometry y="30" width="260" height="26" as="geometry"/>
        </mxCell>
        <mxCell id="table4-col2" value="node_id (TEXT)" style="text;strokeColor=none;fillColor=none;align=left;verticalAlign=middle;spacingLeft=4;spacingRight=4;overflow=hidden;points=[[0,0.5],[1,0.5]];portConstraint=eastwest;rotatable=0;whiteSpace=wrap;html=1;fontColor=#d79b00;fontStyle=1" vertex="1" parent="table4">
          <mxGeometry y="56" width="260" height="26" as="geometry"/>
        </mxCell>
        <mxCell id="table4-col3" value="m_ewma (NUMERIC)" style="text;strokeColor=none;fillColor=none;align=left;verticalAlign=middle;spacingLeft=4;spacingRight=4;overflow=hidden;points=[[0,0.5],[1,0.5]];portConstraint=eastwest;rotatable=0;whiteSpace=wrap;html=1;" vertex="1" parent="table4">
          <mxGeometry y="82" width="260" height="26" as="geometry"/>
        </mxCell>
        <mxCell id="table4-col4" value="sigma_day (NUMERIC)" style="text;strokeColor=none;fillColor=none;align=left;verticalAlign=middle;spacingLeft=4;spacingRight=4;overflow=hidden;points=[[0,0.5],[1,0.5]];portConstraint=eastwest;rotatable=0;whiteSpace=wrap;html=1;" vertex="1" parent="table4">
          <mxGeometry y="108" width="260" height="26" as="geometry"/>
        </mxCell>
        <mxCell id="table4-col5" value="s_err (NUMERIC)" style="text;strokeColor=none;fillColor=none;align=left;verticalAlign=middle;spacingLeft=4;spacingRight=4;overflow=hidden;points=[[0,0.5],[1,0.5]];portConstraint=eastwest;rotatable=0;whiteSpace=wrap;html=1;" vertex="1" parent="table4">
          <mxGeometry y="134" width="260" height="26" as="geometry"/>
        </mxCell>
        <mxCell id="table4-col6" value="target_rate (TEXT)" style="text;strokeColor=none;fillColor=none;align=left;verticalAlign=middle;spacingLeft=4;spacingRight=4;overflow=hidden;points=[[0,0.5],[1,0.5]];portConstraint=eastwest;rotatable=0;whiteSpace=wrap;html=1;fontColor=#CC0000;fontStyle=1" vertex="1" parent="table4">
          <mxGeometry y="160" width="260" height="28" as="geometry"/>
        </mxCell>
        <mxCell id="table4-note" value="スコア計算履歴" style="text;html=1;strokeColor=none;fillColor=none;align=center;verticalAlign=middle;whiteSpace=wrap;rounded=0;fontSize=11;fontStyle=2" vertex="1" parent="1">
          <mxGeometry x="1150" y="298" width="160" height="20" as="geometry"/>
        </mxCell>

        <!-- forecast_snapshots -->
        <mxCell id="table5" value="&lt;b&gt;forecast_snapshots&lt;/b&gt;" style="swimlane;fontStyle=1;childLayout=stackLayout;horizontal=1;startSize=30;horizontalStack=0;resizeParent=1;resizeParentMax=0;resizeLast=0;collapsible=1;marginBottom=0;whiteSpace=wrap;html=1;fillColor=#e1d5e7;strokeColor=#9673a6;" vertex="1" parent="1">
          <mxGeometry x="80" y="560" width="280" height="110" as="geometry"/>
        </mxCell>
        <mxCell id="table5-col1" value="🔑 id (SERIAL PRIMARY KEY)" style="text;strokeColor=none;fillColor=none;align=left;verticalAlign=middle;spacingLeft=4;spacingRight=4;overflow=hidden;points=[[0,0.5],[1,0.5]];portConstraint=eastwest;rotatable=0;whiteSpace=wrap;html=1;fontStyle=1" vertex="1" parent="table5">
          <mxGeometry y="30" width="280" height="26" as="geometry"/>
        </mxCell>
        <mxCell id="table5-col2" value="snapshot (JSONB)" style="text;strokeColor=none;fillColor=none;align=left;verticalAlign=middle;spacingLeft=4;spacingRight=4;overflow=hidden;points=[[0,0.5],[1,0.5]];portConstraint=eastwest;rotatable=0;whiteSpace=wrap;html=1;fontStyle=1" vertex="1" parent="table5">
          <mxGeometry y="56" width="280" height="26" as="geometry"/>
        </mxCell>
        <mxCell id="table5-col3" value="fetched_at (TIMESTAMPTZ)" style="text;strokeColor=none;fillColor=none;align=left;verticalAlign=middle;spacingLeft=4;spacingRight=4;overflow=hidden;points=[[0,0.5],[1,0.5]];portConstraint=eastwest;rotatable=0;whiteSpace=wrap;html=1;" vertex="1" parent="table5">
          <mxGeometry y="82" width="280" height="28" as="geometry"/>
        </mxCell>
        <mxCell id="table5-note" value="予測データスナップショット&lt;br&gt;Cron Job (毎時0分) で保存&lt;br&gt;線形補間・予測履歴グラフ用" style="text;html=1;strokeColor=none;fillColor=none;align=center;verticalAlign=middle;whiteSpace=wrap;rounded=0;fontSize=11;fontStyle=2" vertex="1" parent="1">
          <mxGeometry x="110" y="680" width="220" height="60" as="geometry"/>
        </mxCell>

        <!-- weather_history -->
        <mxCell id="table6" value="&lt;b&gt;weather_history&lt;/b&gt;" style="swimlane;fontStyle=1;childLayout=stackLayout;horizontal=1;startSize=30;horizontalStack=0;resizeParent=1;resizeParentMax=0;resizeLast=0;collapsible=1;marginBottom=0;whiteSpace=wrap;html=1;fillColor=#fff2cc;strokeColor=#d6b656;" vertex="1" parent="1">
          <mxGeometry x="420" y="560" width="280" height="136" as="geometry"/>
        </mxCell>
        <mxCell id="table6-col1" value="🔑 date (DATE) - COMPOSITE KEY" style="text;strokeColor=none;fillColor=none;align=left;verticalAlign=middle;spacingLeft=4;spacingRight=4;overflow=hidden;points=[[0,0.5],[1,0.5]];portConstraint=eastwest;rotatable=0;whiteSpace=wrap;html=1;fontStyle=1;fontColor=#CC0000;" vertex="1" parent="table6">
          <mxGeometry y="30" width="280" height="26" as="geometry"/>
        </mxCell>
        <mxCell id="table6-col2" value="🔑 hour (SMALLINT) - COMPOSITE KEY" style="text;strokeColor=none;fillColor=none;align=left;verticalAlign=middle;spacingLeft=4;spacingRight=4;overflow=hidden;points=[[0,0.5],[1,0.5]];portConstraint=eastwest;rotatable=0;whiteSpace=wrap;html=1;fontStyle=1;fontColor=#CC0000;" vertex="1" parent="table6">
          <mxGeometry y="56" width="280" height="26" as="geometry"/>
        </mxCell>
        <mxCell id="table6-col3" value="payload (JSONB)" style="text;strokeColor=none;fillColor=none;align=left;verticalAlign=middle;spacingLeft=4;spacingRight=4;overflow=hidden;points=[[0,0.5],[1,0.5]];portConstraint=eastwest;rotatable=0;whiteSpace=wrap;html=1;fontStyle=1" vertex="1" parent="table6">
          <mxGeometry y="82" width="280" height="26" as="geometry"/>
        </mxCell>
        <mxCell id="table6-col4" value="created_at (TIMESTAMPTZ)" style="text;strokeColor=none;fillColor=none;align=left;verticalAlign=middle;spacingLeft=4;spacingRight=4;overflow=hidden;points=[[0,0.5],[1,0.5]];portConstraint=eastwest;rotatable=0;whiteSpace=wrap;html=1;" vertex="1" parent="table6">
          <mxGeometry y="108" width="280" height="28" as="geometry"/>
        </mxCell>
        <mxCell id="table6-note" value="過去の天気データ&lt;br&gt;OpenWeatherMap API&lt;br&gt;PRIMARY KEY: (date, hour)" style="text;html=1;strokeColor=none;fillColor=none;align=center;verticalAlign=middle;whiteSpace=wrap;rounded=0;fontSize=11;fontStyle=2" vertex="1" parent="1">
          <mxGeometry x="470" y="706" width="180" height="60" as="geometry"/>
        </mxCell>

        <!-- weather_daily_summary -->
        <mxCell id="table7" value="&lt;b&gt;weather_daily_summary&lt;/b&gt;" style="swimlane;fontStyle=1;childLayout=stackLayout;horizontal=1;startSize=30;horizontalStack=0;resizeParent=1;resizeParentMax=0;resizeLast=0;collapsible=1;marginBottom=0;whiteSpace=wrap;html=1;fillColor=#fff2cc;strokeColor=#d6b656;" vertex="1" parent="1">
          <mxGeometry x="760" y="560" width="280" height="110" as="geometry"/>
        </mxCell>
        <mxCell id="table7-col1" value="🔑 date (DATE PRIMARY KEY)" style="text;strokeColor=none;fillColor=none;align=left;verticalAlign=middle;spacingLeft=4;spacingRight=4;overflow=hidden;points=[[0,0.5],[1,0.5]];portConstraint=eastwest;rotatable=0;whiteSpace=wrap;html=1;fontStyle=1" vertex="1" parent="table7">
          <mxGeometry y="30" width="280" height="26" as="geometry"/>
        </mxCell>
        <mxCell id="table7-col2" value="summary (JSONB)" style="text;strokeColor=none;fillColor=none;align=left;verticalAlign=middle;spacingLeft=4;spacingRight=4;overflow=hidden;points=[[0,0.5],[1,0.5]];portConstraint=eastwest;rotatable=0;whiteSpace=wrap;html=1;fontStyle=1" vertex="1" parent="table7">
          <mxGeometry y="56" width="280" height="26" as="geometry"/>
        </mxCell>
        <mxCell id="table7-col3" value="generated_at (TIMESTAMPTZ)" style="text;strokeColor=none;fillColor=none;align=left;verticalAlign=middle;spacingLeft=4;spacingRight=4;overflow=hidden;points=[[0,0.5],[1,0.5]];portConstraint=eastwest;rotatable=0;whiteSpace=wrap;html=1;" vertex="1" parent="table7">
          <mxGeometry y="82" width="280" height="28" as="geometry"/>
        </mxCell>
        <mxCell id="table7-note" value="日次天気サマリー&lt;br&gt;weather_historyから計算" style="text;html=1;strokeColor=none;fillColor=none;align=center;verticalAlign=middle;whiteSpace=wrap;rounded=0;fontSize=11;fontStyle=2" vertex="1" parent="1">
          <mxGeometry x="810" y="680" width="180" height="40" as="geometry"/>
        </mxCell>

        <!-- raw_measurements -->
        <mxCell id="table8" value="&lt;b&gt;raw_measurements&lt;/b&gt;" style="swimlane;fontStyle=1;childLayout=stackLayout;horizontal=1;startSize=30;horizontalStack=0;resizeParent=1;resizeParentMax=0;resizeLast=0;collapsible=1;marginBottom=0;whiteSpace=wrap;html=1;fillColor=#f5f5f5;strokeColor=#666666;" vertex="1" parent="1">
          <mxGeometry x="1100" y="560" width="260" height="136" as="geometry"/>
        </mxCell>
        <mxCell id="table8-col1" value="🔑 id (SERIAL PRIMARY KEY)" style="text;strokeColor=none;fillColor=none;align=left;verticalAlign=middle;spacingLeft=4;spacingRight=4;overflow=hidden;points=[[0,0.5],[1,0.5]];portConstraint=eastwest;rotatable=0;whiteSpace=wrap;html=1;fontStyle=1" vertex="1" parent="table8">
          <mxGeometry y="30" width="260" height="26" as="geometry"/>
        </mxCell>
        <mxCell id="table8-col2" value="device_id (TEXT)" style="text;strokeColor=none;fillColor=none;align=left;verticalAlign=middle;spacingLeft=4;spacingRight=4;overflow=hidden;points=[[0,0.5],[1,0.5]];portConstraint=eastwest;rotatable=0;whiteSpace=wrap;html=1;" vertex="1" parent="table8">
          <mxGeometry y="56" width="260" height="26" as="geometry"/>
        </mxCell>
        <mxCell id="table8-col3" value="payload (JSONB)" style="text;strokeColor=none;fillColor=none;align=left;verticalAlign=middle;spacingLeft=4;spacingRight=4;overflow=hidden;points=[[0,0.5],[1,0.5]];portConstraint=eastwest;rotatable=0;whiteSpace=wrap;html=1;fontStyle=1" vertex="1" parent="table8">
          <mxGeometry y="82" width="260" height="26" as="geometry"/>
        </mxCell>
        <mxCell id="table8-col4" value="received_at (TIMESTAMPTZ)" style="text;strokeColor=none;fillColor=none;align=left;verticalAlign=middle;spacingLeft=4;spacingRight=4;overflow=hidden;points=[[0,0.5],[1,0.5]];portConstraint=eastwest;rotatable=0;whiteSpace=wrap;html=1;" vertex="1" parent="table8">
          <mxGeometry y="108" width="260" height="28" as="geometry"/>
        </mxCell>
        <mxCell id="table8-index" value="📊 INDEX: received_at DESC" style="text;html=1;strokeColor=none;fillColor=none;align=center;verticalAlign=middle;whiteSpace=wrap;rounded=0;fontSize=10;fontStyle=2" vertex="1" parent="1">
          <mxGeometry x="1150" y="706" width="160" height="20" as="geometry"/>
        </mxCell>
        <mxCell id="table8-note" value="フロントエンドからの&lt;br&gt;テストデータ" style="text;html=1;strokeColor=none;fillColor=none;align=center;verticalAlign=middle;whiteSpace=wrap;rounded=0;fontSize=11;fontStyle=2" vertex="1" parent="1">
          <mxGeometry x="1150" y="736" width="160" height="40" as="geometry"/>
        </mxCell>

        <!-- Relationships -->
        <!-- device_measurements -> processed_measurements -->
        <mxCell id="rel1" style="edgeStyle=orthogonalEdgeStyle;rounded=0;orthogonalLoop=1;jettySize=auto;html=1;strokeWidth=2;fontSize=11;dashed=1;dashPattern=4 4;entryX=0;entryY=0.5;entryDx=0;entryDy=0;exitX=1;exitY=0.5;exitDx=0;exitDy=0;" edge="1" parent="1" source="table1-col2" target="table2-col2">
          <mxGeometry relative="1" as="geometry">
            <mxPoint x="340" y="170" as="sourcePoint"/>
            <mxPoint x="400" y="170" as="targetPoint"/>
          </mxGeometry>
        </mxCell>
        <mxCell id="rel1-label" value="論理的関連&lt;br&gt;(device_id)" style="edgeLabel;html=1;align=center;verticalAlign=middle;resizable=0;points=[];fontSize=10;fontStyle=2;labelBackgroundColor=#ffffff;" vertex="1" connectable="0" parent="rel1">
          <mxGeometry x="-0.1" y="1" relative="1" as="geometry">
            <mxPoint y="-15" as="offset"/>
          </mxGeometry>
        </mxCell>

        <!-- processed_measurements -> control_states -->
        <mxCell id="rel2" style="edgeStyle=orthogonalEdgeStyle;rounded=0;orthogonalLoop=1;jettySize=auto;html=1;strokeWidth=2;fontSize=11;dashed=1;dashPattern=4 4;entryX=0;entryY=0.5;entryDx=0;entryDy=0;exitX=1;exitY=0.5;exitDx=0;exitDy=0;" edge="1" parent="1" source="table2-col2" target="table3-col1">
          <mxGeometry relative="1" as="geometry">
            <mxPoint x="680" y="170" as="sourcePoint"/>
            <mxPoint x="760" y="170" as="targetPoint"/>
          </mxGeometry>
        </mxCell>
        <mxCell id="rel2-label" value="論理的関連&lt;br&gt;(node_id)" style="edgeLabel;html=1;align=center;verticalAlign=middle;resizable=0;points=[];fontSize=10;fontStyle=2;labelBackgroundColor=#ffffff;" vertex="1" connectable="0" parent="rel2">
          <mxGeometry x="-0.1" y="1" relative="1" as="geometry">
            <mxPoint y="-15" as="offset"/>
          </mxGeometry>
        </mxCell>

        <!-- control_states -> score_logs -->
        <mxCell id="rel3" style="edgeStyle=orthogonalEdgeStyle;rounded=0;orthogonalLoop=1;jettySize=auto;html=1;strokeWidth=2;fontSize=11;dashed=1;dashPattern=4 4;entryX=0;entryY=0.5;entryDx=0;entryDy=0;exitX=1;exitY=0.5;exitDx=0;exitDy=0;" edge="1" parent="1" source="table3-col1" target="table4-col2">
          <mxGeometry relative="1" as="geometry">
            <mxPoint x="1040" y="170" as="sourcePoint"/>
            <mxPoint x="1100" y="170" as="targetPoint"/>
          </mxGeometry>
        </mxCell>
        <mxCell id="rel3-label" value="論理的関連&lt;br&gt;(node_id)" style="edgeLabel;html=1;align=center;verticalAlign=middle;resizable=0;points=[];fontSize=10;fontStyle=2;labelBackgroundColor=#ffffff;" vertex="1" connectable="0" parent="rel3">
          <mxGeometry x="-0.1" y="1" relative="1" as="geometry">
            <mxPoint y="-15" as="offset"/>
          </mxGeometry>
        </mxCell>

        <!-- Data Flow Legend -->
        <mxCell id="flow-legend" value="&lt;b&gt;📊 データフロー&lt;/b&gt;" style="rounded=1;whiteSpace=wrap;html=1;fillColor=#f5f5f5;strokeColor=#666666;fontSize=14;align=center;verticalAlign=top;" vertex="1" parent="1">
          <mxGeometry x="80" y="820" width="1280" height="180" as="geometry"/>
        </mxCell>
        <mxCell id="flow-content" value="&lt;b&gt;ESP32 → Backend:&lt;/b&gt;&lt;br&gt;device_measurements&lt;br&gt;  ↓ processMeasurementWithRating()&lt;br&gt;  ├─→ processed_measurements (結果保存)&lt;br&gt;  ├─→ control_states (UPSERT: 現在状態更新)&lt;br&gt;  └─→ score_logs (計算履歴記録)&lt;br&gt;&lt;br&gt;&lt;b&gt;Cron Job → Database:&lt;/b&gt;&lt;br&gt;[OpenWeatherMap API] → forecast_snapshots (毎時保存)&lt;br&gt;[OpenWeatherMap API] → weather_history → weather_daily_summary (日次)" style="text;html=1;strokeColor=none;fillColor=none;align=left;verticalAlign=top;whiteSpace=wrap;rounded=0;fontSize=12;" vertex="1" parent="1">
          <mxGeometry x="100" y="850" width="1240" height="140" as="geometry"/>
        </mxCell>

      </root>
    </mxGraphModel>
  </diagram>
</mxfile>
